{"title":"20-20 - 9-9-2016 - Paige Birgfeld's Secret Life","uid":15959503,"size":320514189,"categoryP":"video","categoryS":"tv_shows","magnet":"?xt=urn:btih:d2d6b48fdb22c5dae02a57fa6eba07fa14fc83a2&amp;dn=20-20+-+9-9-2016+-+Paige+Birgfeld%27s+Secret+Life&amp;tr=udp%3A%2F%2Ftracker.leechers-paradise.org%3A6969&amp;tr=udp%3A%2F%2Fzer0day.ch%3A1337&amp;tr=udp%3A%2F%2Fopen.demonii.com%3A1337&amp;tr=udp%3A%2F%2Ftracker.coppersurfer.tk%3A6969&amp;tr=udp%3A%2F%2Fexodus.desync.com%3A6969","seeders":10,"leechers":6,"uploader":"Bullrout","files":1,"time":1475648165,"description":"20-20 - 9-9-2016 - Paige Birgfeld's Secret Life\n\n20/20 goes to St. Louis to examine how mother Zella Jackson Price was reunited with her long lost daughter Diane Gilmore. It also investigates the baby stealing ring that may have been behind the loss of her daughter and also the children of other women.\n\nComplete name                            : 20-20 - 9-9-2016 - Paige Birgfeld's Secret Life.mp4\nFormat                                   : MPEG-4\nFormat profile                           : Base Media / Version 2\nCodec ID                                 : mp42 (mp42/isom/avc1)\nFile size                                : 306 MiB\nDuration                                 : 38 min 42 s\nOverall bit rate mode                    : Variable\nOverall bit rate                         : 1 104 kb/s\n\nVideo\nID                                       : 2\nFormat                                   : AVC\nFormat/Info                              : Advanced Video Codec\nFormat profile                           :   \nFormat settings, CABAC                   : Yes\nFormat settings, ReFrames                : 3 frames\nCodec ID                                 : avc1\nCodec ID/Info                            : Advanced Video Coding\nDuration                                 : 38 min 42 s\nBit rate mode                            : Variable\nBit rate                                 : 972 kb/s\nMaximum bit rate                         : 1 000 kb/s\nWidth                                    : 720 pixels\nHeight                                   : 404 pixels\nDisplay aspect ratio                     : 16:9\nOriginal display aspect ratio            : 16:9\nFrame rate mode                          : Constant\nFrame rate                               : 25.000 FPS\nStandard                                 : PAL\nColor space                              : YUV\nChroma subsampling                       : 4:2:0\nBit depth                                : 8 bits\nScan type                                : Progressive\nBits/(Pixel*Frame)                       : 0.134\nStream size                              : 269 MiB (88%)\nWriting library                          : x264 core 112\nColor range                              : Limited\nColor primaries                          : BT.601 PAL\nTransfer characteristics                 : BT.470 System B, BT.470 System G\nMatrix coefficients                      : BT.601\n\nAudio\nID                                       : 1\nFormat                                   : AAC\nFormat/Info                              : Advanced Audio Codec\nFormat profile                           : LC\nCodec ID                                 : 40\nDuration                                 : 38 min 42 s\nBit rate mode                            : Variable\nBit rate                                 : 128 kb/s\nMaximum bit rate                         : 576 kb/s\nChannel(s)                               : 2 channels\nChannel positions                        : Front: L R\nSampling rate                            : 48.0 kHz\nFrame rate                               : 46.875 FPS (1024 spf)\nCompression mode                         : Lossy\nStream size                              : 35.5 MiB (12%)","torrent":{"xt":"urn:btih:d2d6b48fdb22c5dae02a57fa6eba07fa14fc83a2","amp;dn":"20-20+-+9-9-2016+-+Paige+Birgfeld%27s+Secret+Life","amp;tr":["udp%3A%2F%2Ftracker.leechers-paradise.org%3A6969","udp%3A%2F%2Fzer0day.ch%3A1337","udp%3A%2F%2Fopen.demonii.com%3A1337","udp%3A%2F%2Ftracker.coppersurfer.tk%3A6969","udp%3A%2F%2Fexodus.desync.com%3A6969"],"infoHash":"d2d6b48fdb22c5dae02a57fa6eba07fa14fc83a2","infoHashBuffer":{"type":"Buffer","data":[210,214,180,143,219,34,197,218,224,42,87,250,110,186,7,250,20,252,131,162]},"announce":[],"urlList":[]}}